<?xml version="1.0" encoding="UTF-8"?>
<svg width="800px" height="600px" viewBox="0 0 800 600" version="1.1" xmlns="http://www.w3.org/2000/svg" xmlns:xlink="http://www.w3.org/1999/xlink">
    <title>Laptop with Code</title>
    <defs>
        <linearGradient x1="0%" y1="0%" x2="100%" y2="100%" id="laptopGradient">
            <stop stop-color="#2563eb" offset="0%"></stop>
            <stop stop-color="#1e40af" offset="100%"></stop>
        </linearGradient>
        <linearGradient x1="0%" y1="0%" x2="100%" y2="100%" id="screenGradient">
            <stop stop-color="#0f172a" offset="0%"></stop>
            <stop stop-color="#1e293b" offset="100%"></stop>
        </linearGradient>
        <filter x="-50%" y="-50%" width="200%" height="200%" filterUnits="objectBoundingBox" id="glow">
            <feGaussianBlur stdDeviation="10" in="SourceGraphic"></feGaussianBlur>
        </filter>
    </defs>
    <g stroke="none" stroke-width="1" fill="none" fill-rule="evenodd">
        <!-- Laptop Base -->
        <rect fill="url(#laptopGradient)" x="150" y="400" width="500" height="30" rx="5"></rect>
        
        <!-- Laptop Body -->
        <rect fill="#1e293b" x="175" y="150" width="450" height="250" rx="10"></rect>
        
        <!-- Screen -->
        <rect fill="url(#screenGradient)" x="200" y="175" width="400" height="200" rx="5"></rect>
        
        <!-- Code Lines -->
        <g transform="translate(220, 195)" fill="#f8fafc" opacity="0.8">
            <rect x="0" y="0" width="120" height="10" rx="2" opacity="0.7"></rect>
            <rect x="0" y="20" width="180" height="10" rx="2" opacity="0.5"></rect>
            <rect x="20" y="40" width="150" height="10" rx="2" opacity="0.7"></rect>
            <rect x="20" y="60" width="200" height="10" rx="2" opacity="0.6"></rect>
            <rect x="0" y="80" width="100" height="10" rx="2" opacity="0.8"></rect>
            <rect x="0" y="100" width="160" height="10" rx="2" opacity="0.6"></rect>
            <rect x="20" y="120" width="140" height="10" rx="2" opacity="0.7"></rect>
            <rect x="20" y="140" width="180" height="10" rx="2" opacity="0.5"></rect>
            <rect x="0" y="160" width="120" height="10" rx="2" opacity="0.8"></rect>
        </g>
        
        <!-- Colored Code Elements -->
        <g transform="translate(350, 195)">
            <rect fill="#3b82f6" x="0" y="0" width="60" height="10" rx="2"></rect>
            <rect fill="#10b981" x="70" y="0" width="40" height="10" rx="2"></rect>
            <rect fill="#f59e0b" x="120" y="0" width="80" height="10" rx="2"></rect>
            
            <rect fill="#3b82f6" x="0" y="40" width="40" height="10" rx="2"></rect>
            <rect fill="#ef4444" x="50" y="40" width="60" height="10" rx="2"></rect>
            
            <rect fill="#8b5cf6" x="0" y="80" width="70" height="10" rx="2"></rect>
            <rect fill="#10b981" x="80" y="80" width="50" height="10" rx="2"></rect>
            
            <rect fill="#f59e0b" x="0" y="120" width="50" height="10" rx="2"></rect>
            <rect fill="#3b82f6" x="60" y="120" width="90" height="10" rx="2"></rect>
            
            <rect fill="#ef4444" x="0" y="160" width="80" height="10" rx="2"></rect>
            <rect fill="#8b5cf6" x="90" y="160" width="40" height="10" rx="2"></rect>
        </g>
        
        <!-- Keyboard -->
        <rect fill="#0f172a" x="175" y="400" width="450" height="5"></rect>
        
        <!-- Glow Effect -->
        <rect fill="#3b82f6" filter="url(#glow)" opacity="0.3" x="200" y="175" width="400" height="200" rx="5"></rect>
        
        <!-- Laptop Hinges -->
        <rect fill="#0f172a" x="300" y="400" width="20" height="5"></rect>
        <rect fill="#0f172a" x="480" y="400" width="20" height="5"></rect>
    </g>
</svg>
